<?xml version="1.0" encoding="UTF-8" standalone="no"?><!DOCTYPE svg PUBLIC "-//W3C//DTD SVG 1.1//EN" "http://www.w3.org/Graphics/SVG/1.1/DTD/svg11.dtd"><svg width="100%" height="100%" viewBox="0 0 2122 2122" version="1.1" xmlns="http://www.w3.org/2000/svg" xmlns:xlink="http://www.w3.org/1999/xlink" xml:space="preserve" xmlns:serif="http://www.serif.com/" style="fill-rule:evenodd;clip-rule:evenodd;stroke-linejoin:round;stroke-miterlimit:2;"><g><path d="M1061.003,0c-4.582,24.864 -9.129,49.07 -13.676,72.637c-4.547,23.567 -9.088,46.495 -13.64,68.806c-4.553,22.306 -9.129,43.995 -13.734,65.092c-4.611,21.091 -9.258,41.59 -13.963,61.514c-4.705,19.918 -9.469,39.267 -14.315,58.064c-4.84,18.791 -9.768,37.031 -14.796,54.737c-5.028,17.712 -10.155,34.884 -15.406,51.552c-5.251,16.662 -10.631,32.819 -16.151,48.484c-5.521,15.664 -11.188,30.842 -17.02,45.55c-5.832,14.709 -11.827,28.953 -18.017,42.746c-6.184,13.799 -12.561,27.146 -19.143,40.071c-6.589,12.925 -13.382,25.427 -20.405,37.524c-7.023,12.097 -14.28,23.79 -21.789,35.101c-7.51,11.312 -15.271,22.247 -23.303,32.819c-8.038,10.566 -16.345,20.781 -24.946,30.655c-8.607,9.868 -17.506,19.402 -26.723,28.618c-9.217,9.217 -18.75,18.117 -28.624,26.724c-9.874,8.606 -20.082,16.914 -30.654,24.945c-10.572,8.038 -21.502,15.799 -32.813,23.309c-11.311,7.504 -23.01,14.761 -35.107,21.784c-12.097,7.028 -24.594,13.822 -37.518,20.405c-12.925,6.582 -26.278,12.96 -40.07,19.149c-13.799,6.184 -28.037,12.186 -42.746,18.017c-14.708,5.832 -29.886,11.499 -45.55,17.02c-15.67,5.521 -31.822,10.895 -48.495,16.145c-16.656,5.257 -33.834,10.384 -51.54,15.413c-17.712,5.027 -35.952,9.95 -54.743,14.796c-18.791,4.846 -38.14,9.609 -58.064,14.315c-19.924,4.705 -40.422,9.352 -61.514,13.957c-21.097,4.611 -42.787,9.182 -65.092,13.74c-22.311,4.553 -45.239,9.093 -68.806,13.64c-23.567,4.547 -47.768,9.094 -72.637,13.67c24.869,4.582 49.07,9.135 72.637,13.675c23.567,4.547 46.495,9.088 68.806,13.641c22.306,4.558 43.995,9.128 65.092,13.74c21.091,4.606 41.59,9.252 61.514,13.957c19.924,4.705 39.273,9.475 58.064,14.315c18.791,4.846 37.031,9.773 54.743,14.796c17.706,5.027 34.884,10.161 51.54,15.412c16.673,5.251 32.825,10.631 48.495,16.152c15.664,5.52 30.842,11.182 45.55,17.02c14.708,5.832 28.947,11.827 42.746,18.017c13.793,6.184 27.146,12.561 40.07,19.144c12.925,6.588 25.421,13.382 37.518,20.405c12.097,7.022 23.796,14.28 35.107,21.789c11.311,7.509 22.241,15.271 32.813,23.303c10.572,8.038 20.78,16.345 30.654,24.946c9.874,8.606 19.407,17.507 28.624,26.723c9.217,9.217 18.117,18.751 26.723,28.624c8.601,9.874 16.908,20.082 24.946,30.654c8.032,10.572 15.793,21.502 23.303,32.813c7.51,11.311 14.767,23.01 21.789,35.107c7.023,12.097 13.816,24.594 20.405,37.518c6.582,12.925 12.96,26.278 19.143,40.07c6.189,13.799 12.185,28.038 18.017,42.746c5.832,14.708 11.499,29.886 17.02,45.55c5.521,15.67 10.901,31.821 16.151,48.489c5.251,16.662 10.378,33.839 15.406,51.546c5.028,17.711 9.956,35.951 14.796,54.743c4.846,18.791 9.61,38.14 14.315,58.064c4.705,19.924 9.352,40.417 13.963,61.514c4.605,21.092 9.182,42.787 13.734,65.093c4.553,22.311 9.094,45.239 13.64,68.806c4.547,23.561 9.094,47.767 13.676,72.637c4.576,-24.87 9.129,-49.076 13.67,-72.637c4.547,-23.568 9.088,-46.495 13.646,-68.806c4.553,-22.306 9.123,-44.001 13.734,-65.093c4.605,-21.097 9.252,-41.59 13.963,-61.514c4.705,-19.924 9.469,-39.272 14.309,-58.064c4.846,-18.791 9.774,-37.031 14.802,-54.743c5.028,-17.706 10.155,-34.884 15.406,-51.546c5.251,-16.668 10.631,-32.819 16.151,-48.489c5.521,-15.665 11.188,-30.842 17.02,-45.55c5.832,-14.708 11.827,-28.947 18.017,-42.746c6.189,-13.793 12.561,-27.146 19.143,-40.07c6.588,-12.925 13.382,-25.421 20.405,-37.518c7.028,-12.097 14.28,-23.796 21.789,-35.107c7.51,-11.311 15.271,-22.241 23.303,-32.813c8.038,-10.572 16.345,-20.78 24.952,-30.654c8.601,-9.874 17.501,-19.407 26.717,-28.624c9.217,-9.216 18.75,-18.117 28.624,-26.723c9.874,-8.601 20.082,-16.909 30.654,-24.946c10.572,-8.032 21.502,-15.794 32.813,-23.303c11.317,-7.51 23.01,-14.767 35.107,-21.789c12.097,-7.023 24.594,-13.817 37.518,-20.405c12.925,-6.583 26.278,-12.96 40.07,-19.144c13.799,-6.189 28.037,-12.185 42.746,-18.017c14.708,-5.837 29.886,-11.499 45.55,-17.02c15.664,-5.521 31.822,-10.901 48.489,-16.152c16.662,-5.251 33.84,-10.384 51.546,-15.412c17.706,-5.022 35.946,-9.95 54.743,-14.796c18.791,-4.841 38.14,-9.61 58.064,-14.315c19.918,-4.705 40.417,-9.352 61.514,-13.957c21.091,-4.611 42.781,-9.181 65.092,-13.74c22.306,-4.553 45.233,-9.094 68.8,-13.641c23.567,-4.54 47.774,-9.093 72.637,-13.675c-24.864,-4.576 -49.07,-9.123 -72.637,-13.67c-23.567,-4.547 -46.494,-9.087 -68.8,-13.64c-22.311,-4.558 -44.001,-9.129 -65.092,-13.74c-21.097,-4.605 -41.596,-9.252 -61.514,-13.957c-19.924,-4.705 -39.273,-9.468 -58.064,-14.315c-18.797,-4.846 -37.037,-9.768 -54.743,-14.796c-17.706,-5.028 -34.884,-10.156 -51.546,-15.413c-16.668,-5.25 -32.825,-10.624 -48.489,-16.145c-15.664,-5.521 -30.842,-11.188 -45.55,-17.02c-14.708,-5.832 -28.947,-11.833 -42.746,-18.017c-13.793,-6.189 -27.146,-12.567 -40.07,-19.149c-12.925,-6.583 -25.421,-13.377 -37.518,-20.405c-12.097,-7.023 -23.79,-14.28 -35.107,-21.784c-11.311,-7.51 -22.241,-15.271 -32.813,-23.309c-10.572,-8.032 -20.78,-16.339 -30.654,-24.945c-9.874,-8.607 -19.407,-17.507 -28.624,-26.724c-9.217,-9.216 -18.117,-18.75 -26.717,-28.618c-8.607,-9.874 -16.914,-20.088 -24.952,-30.655c-8.032,-10.572 -15.794,-21.507 -23.303,-32.819c-7.51,-11.311 -14.761,-23.003 -21.789,-35.101c-7.023,-12.097 -13.816,-24.6 -20.405,-37.524c-6.583,-12.925 -12.954,-26.272 -19.143,-40.071c-6.19,-13.793 -12.186,-28.037 -18.017,-42.746c-5.832,-14.708 -11.499,-29.886 -17.02,-45.55c-5.521,-15.665 -10.901,-31.822 -16.151,-48.484c-5.251,-16.667 -10.378,-33.839 -15.406,-51.552c-5.028,-17.706 -9.956,-35.946 -14.802,-54.737c-4.84,-18.798 -9.604,-38.147 -14.309,-58.064c-4.711,-19.924 -9.358,-40.422 -13.963,-61.514c-4.611,-21.097 -9.182,-42.787 -13.734,-65.092c-4.558,-22.311 -9.099,-45.239 -13.646,-68.806c-4.541,-23.567 -9.094,-47.773 -13.67,-72.637Z" style="fill:#fff;fill-rule:nonzero;"/></g></svg>